<svg height="100%" weight="100%" viewBox="0 0 384 384">
  <g>
    <path fill="currentColor" d="M294.7,85.5h-35c-.3,0-.7,0-1,0H97.2c-9.7,0-16.2-7-16.2-14.2,0-7.1,6.6-14.2,16.2-14.2h190.1c5,0,9-4,9-9s-4-9-9-9H97.2c-18.2,0-34.2,13.8-34.2,32.2,0,0,0,0,0,0s0,0,0,0v257.2c0,9.9,8.4,16.5,17.2,16.5h214.5c8.8,0,17.2-6.8,17.2-16.5V102c0-9.9-8.4-16.5-17.2-16.5ZM293.9,327H81V99.6c4.5,2.3,9.6,3.6,15,3.8.4,0,.8,0,1.2,0h196.7v223.5Z"/>
    <circle fill="currentColor" cx="254.9" cy="156" r="12"/>
    <path fill="currentColor" d="M107.1,286.7h169c5.3,0,9.6-4,9.6-9v-32.6c0-2-.7-4-2-5.5l-33.8-40.7c-1.8-2.2-4.6-3.5-7.6-3.5-2.6,0-5,1-6.8,2.7l-.7.8-26,31.3-43.2-55.5c-1.9-2.4-4.8-3.8-8-3.7-2.8,0-5.3,1.3-7.1,3.2l-.7.9-50.7,73.3c-1,1.5-1.5,3.2-1.5,4.9v24.4c0,5,4.3,9,9.6,9ZM116.7,255.9l41.6-60.1,42.5,54.6c1.8,2.3,4.6,3.6,7.6,3.7,3,0,5.8-1.2,7.7-3.5l26.3-31.6,24.2,29.2v20.5H116.7v-12.8Z"/>
  </g>
</svg>
