<svg height="100%" width="100%" viewBox="0 0 384 384">
  <g>
    <path fill="currentColor" d="M328.3,77.5c-.4-5.8-1.3-10.9-3.4-15.7-3.3-7.6-8.8-14-15.7-18.1-4.5-2.7-9.4-3.8-14.7-4.3-5.1-.5-11.4-.5-18.9-.5H116c-7.5,0-13.8,0-18.9.5-5.3.5-10.1,1.6-14.7,4.3-6.9,4.1-12.4,10.5-15.7,18.1-2.1,4.8-3,9.9-3.4,15.7-.4,5.7-.4,12.8-.4,21.6v185.6c0,8.8,0,15.9.4,21.6.4,5.8,1.3,10.9,3.4,15.7,3.3,7.6,8.7,14,15.7,18.1,4.5,2.7,9.4,3.8,14.6,4.3,5.1.5,11.4.5,18.9.5h159.7c7.5,0,13.8,0,18.9-.5,5.3-.5,10.1-1.6,14.6-4.3,6.9-4.1,12.4-10.5,15.7-18.1,2.1-4.8,3-9.9,3.4-15.7.4-5.7.4-12.8.4-21.6V99.2c0-8.8,0-15.9-.4-21.6ZM310.7,284.9c0,9.1,0,15.4-.4,20.3-.3,4.9-1,7.6-1.9,9.7-2,4.5-5,7.8-8.4,9.9-1.4.8-3.3,1.5-7.2,1.8-4.1.4-9.3.4-17.2.4H116c-7.9,0-13.1,0-17.2-.4-3.9-.4-5.8-1-7.2-1.8-3.4-2-6.4-5.4-8.4-9.9-.9-2.1-1.5-4.9-1.9-9.7-.3-4.9-.4-11.3-.4-20.4V99.2c0-9.1,0-15.4.4-20.4.3-4.9,1-7.7,1.9-9.7,2-4.5,5-7.8,8.4-9.9,1.4-.8,3.3-1.5,7.2-1.8,4.1-.4,9.4-.4,17.2-.4h159.6c7.9,0,13.2,0,17.2.4,3.9.4,5.8,1,7.2,1.8,3.4,2,6.4,5.4,8.4,9.9.9,2.1,1.5,4.8,1.9,9.7.3,4.9.4,11.3.4,20.4v185.7Z"/>
    <path fill="currentColor" d="M195,270c-11.6,0-21,9.4-21,21s9.4,21,21,21,21-9.4,21-21-9.4-21-21-21ZM195,300c-5,0-9-4-9-9s4-9,9-9,9,4,9,9-4,9-9,9Z"/>
    <circle fill="currentColor" cx="264" cy="108" r="12"/>
    <path fill="currentColor" d="M255.6,141.5c-1.7-2.2-4.3-3.5-7.1-3.5s-4.7,1-6.4,2.7l-.7.8-27.8,35.6-45.7-62.4c-1.7-2.4-4.6-3.8-7.5-3.7-2.6,0-5,1.3-6.6,3.2l-.7.9-52.7,81c-1,1.5-1.5,3.2-1.5,4.9v27c0,5,4,9,9,9h175.7c5,0,9-4,9-9v-36c0-2-.7-4-1.9-5.5l-35.1-45ZM274.7,219H117v-15.3l44.1-67.8,45,61.5c1.7,2.3,4.3,3.6,7.1,3.7,2.8,0,5.5-1.2,7.2-3.5l28-35.9,26.1,33.5v23.9Z"/>
  </g>
</svg>
