<svg height="100%" width="100%" viewBox="0 0 384 384">
  <g>
    <path fill="currentColor" d="M328.3,77.5c-.4-5.8-1.3-10.9-3.4-15.7-3.3-7.6-8.8-14-15.7-18.1-4.5-2.7-9.4-3.8-14.7-4.3-5.1-.5-11.4-.5-18.9-.5H116c-7.5,0-13.8,0-18.9.5-5.3.5-10.1,1.6-14.7,4.3-6.9,4.1-12.4,10.5-15.7,18.1-2.1,4.8-3,9.9-3.4,15.7-.4,5.7-.4,12.8-.4,21.6v185.6c0,8.8,0,15.9.4,21.6.4,5.8,1.3,10.9,3.4,15.7,3.3,7.6,8.7,14,15.7,18.1,4.5,2.7,9.4,3.8,14.6,4.3,5.1.5,11.4.5,18.9.5h159.7c7.5,0,13.8,0,18.9-.5,5.3-.5,10.1-1.6,14.6-4.3,6.9-4.1,12.4-10.5,15.7-18.1,2.1-4.8,3-9.9,3.4-15.7.4-5.7.4-12.8.4-21.6V99.2c0-8.8,0-15.9-.4-21.6ZM81.4,78.8c.3-4.9,1-7.7,1.9-9.7,2-4.5,5-7.8,8.4-9.9,1.4-.8,3.3-1.5,7.2-1.8,4.1-.4,9.4-.4,17.2-.4h159.6c7.9,0,13.2,0,17.2.4,3.9.4,5.8,1,7.2,1.8,3.4,2,6.4,5.4,8.4,9.9.9,2.1,1.5,4.8,1.9,9.7.3,4.9.4,11.3.4,20.4v93.4h-54.8l-2.6,2.5-37.1,35.9h-42.2v-30h30.8c3.1,0,6-1.6,7.6-4.2,1.6-2.6,1.8-5.9.5-8.7l-10-20.7h1.8c3.2,0,6.2-1.7,7.8-4.5,1.6-2.8,1.6-6.2,0-9l-41.6-72c-1.6-2.8-4.6-4.5-7.8-4.5s-5.4,1.3-7.1,3.5l-.7,1-41.6,72c-1.6,2.8-1.6,6.2,0,9,1.6,2.8,4.6,4.5,7.8,4.5h1.8l-10,20.7c-1.3,2.8-1.2,6.1.5,8.7,1.6,2.6,4.5,4.2,7.6,4.2h34.4v30h-75V99.2c0-9.1,0-15.4.4-20.4ZM188.4,149h-50.4c-.2,0-.4,0-.6,0l25.8-44.6,25.8,44.6h-.6ZM143.5,167.4h39.5l7.5,15.6h-54.5l7.5-15.6ZM310.3,305.2c-.3,4.9-1,7.6-1.9,9.7-2,4.5-5,7.8-8.4,9.9-1.4.8-3.3,1.5-7.2,1.8-4.1.4-9.3.4-17.2.4H116c-7.9,0-13.1,0-17.2-.4-3.9-.4-5.8-1-7.2-1.8-3.4-2-6.4-5.4-8.4-9.9-.9-2.1-1.5-4.9-1.9-9.7-.3-4.9-.4-11.3-.4-20.4v-35.8h142.4l2.6-2.5,37.1-35.9h47.5v74.3c0,9.1,0,15.4-.4,20.3Z"/>
    <path fill="currentColor" d="M266.9,120c6.6,0,12-5.4,12-12s-5.4-12-12-12-12,5.4-12,12,5.4,12,12,12Z"/>
    <path fill="currentColor" d="M195,270c-11.6,0-21,9.4-21,21s9.4,21,21,21,21-9.4,21-21-9.4-21-21-21ZM195,300c-5,0-9-4-9-9s4-9,9-9,9,4,9,9-4,9-9,9Z"/>
  </g>
</svg>
