<svg width="100%" height="100%" viewBox="0 0 32 32" fill="none" xmlns="http://www.w3.org/2000/svg">
<path d="M6 8.26693V23.7336C6 25.2271 6 25.9734 6.24996 26.5438C6.46983 27.0456 6.82041 27.454 7.25193 27.7096C7.74202 28 8.38391 28 9.66579 28H22.9742C24.2561 28 24.8971 28 25.3871 27.7096C25.8187 27.454 26.1704 27.0456 26.3903 26.5438C26.64 25.974 26.64 25.2287 26.64 23.7381V8.26255C26.64 6.77199 26.64 6.0256 26.3903 5.45573C26.1704 4.95396 25.8187 4.54631 25.3871 4.29065C24.8966 4 24.2553 4 22.9709 4H9.66956C8.38517 4 7.7425 4 7.25193 4.29065C6.82041 4.54631 6.46983 4.95396 6.24996 5.45573C6 6.02616 6 6.77345 6 8.26693Z" stroke="currentColor" stroke-width="1.5" stroke-linecap="round" stroke-linejoin="round"/>
<path d="M12.45 14.667H20.19M12.45 10.667H20.19" stroke="currentColor" stroke-width="1.5" stroke-linecap="round" stroke-linejoin="round"/>
<path d="M12.45 18.9087H20.19" stroke="currentColor" stroke-width="1.5" stroke-linecap="round" stroke-linejoin="round"/>
<circle cx="16.25" cy="24.25" r="1.25" stroke="currentColor"/>
</svg>
