<svg height="100%" width="100%" viewBox="0 0 384 384">
  <g>
    <path fill="currentColor" d="M294.7,85.5h-35c-.3,0-.7,0-1,0H97.2c-9.7,0-16.2-7-16.2-14.2,0-7.1,6.6-14.2,16.2-14.2h190.1c5,0,9-4,9-9s-4-9-9-9H97.2c-18.2,0-34.2,13.8-34.2,32.2v257.2c0,9.9,8.4,16.5,17.2,16.5h214.5c8.8,0,17.2-6.8,17.2-16.5V102c0-9.9-8.4-16.5-17.2-16.5ZM96,103.4c.4,0,.8,0,1.2,0h196.7v137.1h-38l-2.6,2.5-37.1,35.9h-42.2v-30h30.8c3.1,0,6-1.6,7.6-4.2,1.6-2.6,1.8-5.9.5-8.7l-10-20.7h1.8c3.2,0,6.2-1.7,7.8-4.5,1.6-2.8,1.6-6.2,0-9l-41.6-72c-1.6-2.8-4.6-4.5-7.8-4.5s-5.4,1.3-7.1,3.5l-.7,1-41.6,72c-1.6,2.8-1.6,6.2,0,9,1.6,2.8,4.6,4.5,7.8,4.5h1.8l-10,20.7c-1.3,2.8-1.2,6.1.5,8.7,1.6,2.6,4.5,4.2,7.6,4.2h34.4v30h-75V99.6c4.5,2.3,9.6,3.6,15,3.8ZM188.4,197h-50.4c-.2,0-.4,0-.6,0l25.8-44.6,25.8,44.6h-.6ZM143.5,215.4h39.5l7.5,15.6h-54.5l7.5-15.6ZM81,327v-30h142.4l2.6-2.5,37.1-35.9h30.7v68.4H81Z"/>
    <circle fill="currentColor" cx="254.9" cy="156" r="12"/>
  </g>
</svg>
