<svg width="100%" height="100%" viewBox="0 0 32 32" fill="none" xmlns="http://www.w3.org/2000/svg">
<mask id="path-1-outside-1_5838_450" maskUnits="userSpaceOnUse" x="4" y="4" width="24" height="24" fill="currentColor">
<rect fill="white" x="4" y="4" width="24" height="24"/>
<path d="M18.1186 17.3524C18.5659 16.9285 18.8757 16.3802 19.0081 15.7783C19.1405 15.1765 19.0893 14.5487 18.8611 13.9763C18.633 13.4038 18.2384 12.913 17.7283 12.5672C17.2183 12.2214 16.6162 12.0365 16 12.0365C15.3838 12.0365 14.7817 12.2214 14.2717 12.5672C13.7616 12.913 13.367 13.4038 13.1389 13.9763C12.9107 14.5487 12.8595 15.1765 12.9919 15.7783C13.1243 16.3802 13.4341 16.9285 13.8814 17.3524C13.3341 17.4454 12.8418 17.7407 12.502 18.1797C12.2967 18.4411 12.1544 18.7462 12.0861 19.0715C12.0178 19.3968 12.0254 19.7334 12.1082 20.0553L13.448 25.3356C13.5714 25.8139 13.851 26.2374 14.2423 26.5389C14.6336 26.8404 15.1144 27.0027 15.6084 27H16.3916C16.8856 27.0027 17.3664 26.8404 17.7577 26.5389C18.149 26.2374 18.4286 25.8139 18.552 25.3356L19.8918 20.0553C19.9746 19.7334 19.9822 19.3968 19.9139 19.0715C19.8456 18.7462 19.7033 18.4411 19.498 18.1797C19.1582 17.7407 18.6659 17.4454 18.1186 17.3524ZM13.8 15.1193C13.8 14.6841 13.929 14.2588 14.1708 13.897C14.4125 13.5352 14.7561 13.2532 15.1581 13.0866C15.5601 12.9201 16.0024 12.8765 16.4292 12.9614C16.856 13.0463 17.248 13.2559 17.5556 13.5636C17.8633 13.8713 18.0728 14.2633 18.1577 14.6901C18.2426 15.1168 18.199 15.5592 18.0325 15.9612C17.866 16.3633 17.584 16.7069 17.2223 16.9486C16.8605 17.1904 16.4351 17.3194 16 17.3194C15.4165 17.3194 14.8569 17.0876 14.4444 16.675C14.0318 16.2624 13.8 15.7028 13.8 15.1193ZM19.0393 19.8386L17.6995 25.1189C17.6239 25.4074 17.4542 25.6626 17.2173 25.8439C16.9805 26.0252 16.6899 26.1223 16.3916 26.1199H15.6084C15.3101 26.1223 15.0195 26.0252 14.7827 25.8439C14.5458 25.6626 14.3761 25.4074 14.3005 25.1189L12.9607 19.8386C12.9116 19.6465 12.9073 19.4457 12.9481 19.2518C12.9889 19.0578 13.0738 18.8758 13.1961 18.7198C13.3228 18.5567 13.4854 18.4249 13.6711 18.3347C13.8569 18.2445 14.061 18.1982 14.2675 18.1995H17.7325C17.939 18.1982 18.1431 18.2445 18.3289 18.3347C18.5146 18.4249 18.6772 18.5567 18.8039 18.7198C18.9262 18.8758 19.0111 19.0578 19.0519 19.2518C19.0927 19.4457 19.0884 19.6465 19.0393 19.8386ZM22.6 15.9993C22.5993 15.0575 22.3969 14.1267 22.0067 13.2695C21.6164 12.4123 21.0472 11.6485 20.3373 11.0296C19.6274 10.4106 18.7933 9.95073 17.8909 9.68088C16.9886 9.41103 16.0389 9.33744 15.1058 9.46505C14.1727 9.59266 13.2776 9.91851 12.4809 10.4207C11.6841 10.9229 11.004 11.5899 10.4864 12.3767C9.96871 13.1635 9.62543 14.0521 9.4796 14.9826C9.33377 15.9131 9.38877 16.864 9.6409 17.7715C9.67212 17.884 9.65738 18.0043 9.59993 18.1059C9.54247 18.2075 9.44702 18.2821 9.33455 18.3133C9.22209 18.3445 9.10183 18.3298 9.00023 18.2723C8.89863 18.2149 8.82402 18.1194 8.7928 18.007C8.48283 16.8955 8.43415 15.7274 8.65058 14.5941C8.867 13.4607 9.34267 12.3928 10.0404 11.4738C10.7381 10.5548 11.6389 9.8097 12.6724 9.29673C13.7059 8.78376 14.844 8.51684 15.9978 8.51684C17.1516 8.51684 18.2897 8.78376 19.3232 9.29673C20.3567 9.8097 21.2575 10.5548 21.9552 11.4738C22.6529 12.3928 23.1286 13.4607 23.345 14.5941C23.5615 15.7274 23.5128 16.8955 23.2028 18.007C23.1771 18.0996 23.1218 18.1812 23.0453 18.2394C22.9688 18.2976 22.8754 18.3292 22.7793 18.3293C22.7396 18.3295 22.7 18.3243 22.6616 18.3139C22.6058 18.2985 22.5536 18.2722 22.5079 18.2366C22.4623 18.201 22.4241 18.1568 22.3956 18.1064C22.3671 18.056 22.3488 18.0005 22.3418 17.943C22.3348 17.8856 22.3392 17.8273 22.3547 17.7715C22.5162 17.1946 22.5988 16.5984 22.6 15.9993ZM27 15.9993C27.001 17.8078 26.5558 19.5886 25.7038 21.1838C24.8519 22.779 23.6195 24.1393 22.116 25.1442C22.0191 25.2069 21.9015 25.229 21.7885 25.2058C21.6754 25.1826 21.576 25.1159 21.5117 25.0201C21.4474 24.9243 21.4232 24.8071 21.4445 24.6936C21.4658 24.5802 21.5307 24.4797 21.6254 24.4137C23.4299 23.207 24.7986 21.4519 25.5293 19.4077C26.2601 17.3635 26.3142 15.1385 25.6837 13.0612C25.0532 10.9839 23.7715 9.16437 22.0277 7.87132C20.284 6.57827 18.1708 5.88021 16 5.88021C13.8292 5.88021 11.716 6.57827 9.97226 7.87132C8.22855 9.16437 6.94681 10.9839 6.31629 13.0612C5.68578 15.1385 5.73989 17.3635 6.47066 19.4077C7.20142 21.4519 8.5701 23.207 10.3746 24.4137C10.4693 24.4797 10.5342 24.5802 10.5555 24.6936C10.5768 24.8071 10.5526 24.9243 10.4883 25.0201C10.424 25.1159 10.3246 25.1826 10.2115 25.2058C10.0985 25.229 9.98088 25.2069 9.884 25.1442C8.30467 24.0876 7.02593 22.64 6.17237 20.9423C5.31881 19.2447 4.91953 17.3548 5.01345 15.4569C5.10736 13.559 5.69126 11.7178 6.70825 10.1127C7.72525 8.50762 9.14066 7.19332 10.8166 6.29791C12.4925 5.40249 14.3718 4.95648 16.2713 5.00335C18.1708 5.05021 20.0258 5.58834 21.6555 6.56531C23.2852 7.54227 24.6341 8.92477 25.5707 10.5781C26.5074 12.2314 26.9998 14.0991 27 15.9993Z"/>
</mask>
<path d="M18.1186 17.3524C18.5659 16.9285 18.8757 16.3802 19.0081 15.7783C19.1405 15.1765 19.0893 14.5487 18.8611 13.9763C18.633 13.4038 18.2384 12.913 17.7283 12.5672C17.2183 12.2214 16.6162 12.0365 16 12.0365C15.3838 12.0365 14.7817 12.2214 14.2717 12.5672C13.7616 12.913 13.367 13.4038 13.1389 13.9763C12.9107 14.5487 12.8595 15.1765 12.9919 15.7783C13.1243 16.3802 13.4341 16.9285 13.8814 17.3524C13.3341 17.4454 12.8418 17.7407 12.502 18.1797C12.2967 18.4411 12.1544 18.7462 12.0861 19.0715C12.0178 19.3968 12.0254 19.7334 12.1082 20.0553L13.448 25.3356C13.5714 25.8139 13.851 26.2374 14.2423 26.5389C14.6336 26.8404 15.1144 27.0027 15.6084 27H16.3916C16.8856 27.0027 17.3664 26.8404 17.7577 26.5389C18.149 26.2374 18.4286 25.8139 18.552 25.3356L19.8918 20.0553C19.9746 19.7334 19.9822 19.3968 19.9139 19.0715C19.8456 18.7462 19.7033 18.4411 19.498 18.1797C19.1582 17.7407 18.6659 17.4454 18.1186 17.3524ZM13.8 15.1193C13.8 14.6841 13.929 14.2588 14.1708 13.897C14.4125 13.5352 14.7561 13.2532 15.1581 13.0866C15.5601 12.9201 16.0024 12.8765 16.4292 12.9614C16.856 13.0463 17.248 13.2559 17.5556 13.5636C17.8633 13.8713 18.0728 14.2633 18.1577 14.6901C18.2426 15.1168 18.199 15.5592 18.0325 15.9612C17.866 16.3633 17.584 16.7069 17.2223 16.9486C16.8605 17.1904 16.4351 17.3194 16 17.3194C15.4165 17.3194 14.8569 17.0876 14.4444 16.675C14.0318 16.2624 13.8 15.7028 13.8 15.1193ZM19.0393 19.8386L17.6995 25.1189C17.6239 25.4074 17.4542 25.6626 17.2173 25.8439C16.9805 26.0252 16.6899 26.1223 16.3916 26.1199H15.6084C15.3101 26.1223 15.0195 26.0252 14.7827 25.8439C14.5458 25.6626 14.3761 25.4074 14.3005 25.1189L12.9607 19.8386C12.9116 19.6465 12.9073 19.4457 12.9481 19.2518C12.9889 19.0578 13.0738 18.8758 13.1961 18.7198C13.3228 18.5567 13.4854 18.4249 13.6711 18.3347C13.8569 18.2445 14.061 18.1982 14.2675 18.1995H17.7325C17.939 18.1982 18.1431 18.2445 18.3289 18.3347C18.5146 18.4249 18.6772 18.5567 18.8039 18.7198C18.9262 18.8758 19.0111 19.0578 19.0519 19.2518C19.0927 19.4457 19.0884 19.6465 19.0393 19.8386ZM22.6 15.9993C22.5993 15.0575 22.3969 14.1267 22.0067 13.2695C21.6164 12.4123 21.0472 11.6485 20.3373 11.0296C19.6274 10.4106 18.7933 9.95073 17.8909 9.68088C16.9886 9.41103 16.0389 9.33744 15.1058 9.46505C14.1727 9.59266 13.2776 9.91851 12.4809 10.4207C11.6841 10.9229 11.004 11.5899 10.4864 12.3767C9.96871 13.1635 9.62543 14.0521 9.4796 14.9826C9.33377 15.9131 9.38877 16.864 9.6409 17.7715C9.67212 17.884 9.65738 18.0043 9.59993 18.1059C9.54247 18.2075 9.44702 18.2821 9.33455 18.3133C9.22209 18.3445 9.10183 18.3298 9.00023 18.2723C8.89863 18.2149 8.82402 18.1194 8.7928 18.007C8.48283 16.8955 8.43415 15.7274 8.65058 14.5941C8.867 13.4607 9.34267 12.3928 10.0404 11.4738C10.7381 10.5548 11.6389 9.8097 12.6724 9.29673C13.7059 8.78376 14.844 8.51684 15.9978 8.51684C17.1516 8.51684 18.2897 8.78376 19.3232 9.29673C20.3567 9.8097 21.2575 10.5548 21.9552 11.4738C22.6529 12.3928 23.1286 13.4607 23.345 14.5941C23.5615 15.7274 23.5128 16.8955 23.2028 18.007C23.1771 18.0996 23.1218 18.1812 23.0453 18.2394C22.9688 18.2976 22.8754 18.3292 22.7793 18.3293C22.7396 18.3295 22.7 18.3243 22.6616 18.3139C22.6058 18.2985 22.5536 18.2722 22.5079 18.2366C22.4623 18.201 22.4241 18.1568 22.3956 18.1064C22.3671 18.056 22.3488 18.0005 22.3418 17.943C22.3348 17.8856 22.3392 17.8273 22.3547 17.7715C22.5162 17.1946 22.5988 16.5984 22.6 15.9993ZM27 15.9993C27.001 17.8078 26.5558 19.5886 25.7038 21.1838C24.8519 22.779 23.6195 24.1393 22.116 25.1442C22.0191 25.2069 21.9015 25.229 21.7885 25.2058C21.6754 25.1826 21.576 25.1159 21.5117 25.0201C21.4474 24.9243 21.4232 24.8071 21.4445 24.6936C21.4658 24.5802 21.5307 24.4797 21.6254 24.4137C23.4299 23.207 24.7986 21.4519 25.5293 19.4077C26.2601 17.3635 26.3142 15.1385 25.6837 13.0612C25.0532 10.9839 23.7715 9.16437 22.0277 7.87132C20.284 6.57827 18.1708 5.88021 16 5.88021C13.8292 5.88021 11.716 6.57827 9.97226 7.87132C8.22855 9.16437 6.94681 10.9839 6.31629 13.0612C5.68578 15.1385 5.73989 17.3635 6.47066 19.4077C7.20142 21.4519 8.5701 23.207 10.3746 24.4137C10.4693 24.4797 10.5342 24.5802 10.5555 24.6936C10.5768 24.8071 10.5526 24.9243 10.4883 25.0201C10.424 25.1159 10.3246 25.1826 10.2115 25.2058C10.0985 25.229 9.98088 25.2069 9.884 25.1442C8.30467 24.0876 7.02593 22.64 6.17237 20.9423C5.31881 19.2447 4.91953 17.3548 5.01345 15.4569C5.10736 13.559 5.69126 11.7178 6.70825 10.1127C7.72525 8.50762 9.14066 7.19332 10.8166 6.29791C12.4925 5.40249 14.3718 4.95648 16.2713 5.00335C18.1708 5.05021 20.0258 5.58834 21.6555 6.56531C23.2852 7.54227 24.6341 8.92477 25.5707 10.5781C26.5074 12.2314 26.9998 14.0991 27 15.9993Z" fill="currentColor"/>
<path d="M18.1186 17.3524C18.5659 16.9285 18.8757 16.3802 19.0081 15.7783C19.1405 15.1765 19.0893 14.5487 18.8611 13.9763C18.633 13.4038 18.2384 12.913 17.7283 12.5672C17.2183 12.2214 16.6162 12.0365 16 12.0365C15.3838 12.0365 14.7817 12.2214 14.2717 12.5672C13.7616 12.913 13.367 13.4038 13.1389 13.9763C12.9107 14.5487 12.8595 15.1765 12.9919 15.7783C13.1243 16.3802 13.4341 16.9285 13.8814 17.3524C13.3341 17.4454 12.8418 17.7407 12.502 18.1797C12.2967 18.4411 12.1544 18.7462 12.0861 19.0715C12.0178 19.3968 12.0254 19.7334 12.1082 20.0553L13.448 25.3356C13.5714 25.8139 13.851 26.2374 14.2423 26.5389C14.6336 26.8404 15.1144 27.0027 15.6084 27H16.3916C16.8856 27.0027 17.3664 26.8404 17.7577 26.5389C18.149 26.2374 18.4286 25.8139 18.552 25.3356L19.8918 20.0553C19.9746 19.7334 19.9822 19.3968 19.9139 19.0715C19.8456 18.7462 19.7033 18.4411 19.498 18.1797C19.1582 17.7407 18.6659 17.4454 18.1186 17.3524ZM13.8 15.1193C13.8 14.6841 13.929 14.2588 14.1708 13.897C14.4125 13.5352 14.7561 13.2532 15.1581 13.0866C15.5601 12.9201 16.0024 12.8765 16.4292 12.9614C16.856 13.0463 17.248 13.2559 17.5556 13.5636C17.8633 13.8713 18.0728 14.2633 18.1577 14.6901C18.2426 15.1168 18.199 15.5592 18.0325 15.9612C17.866 16.3633 17.584 16.7069 17.2223 16.9486C16.8605 17.1904 16.4351 17.3194 16 17.3194C15.4165 17.3194 14.8569 17.0876 14.4444 16.675C14.0318 16.2624 13.8 15.7028 13.8 15.1193ZM19.0393 19.8386L17.6995 25.1189C17.6239 25.4074 17.4542 25.6626 17.2173 25.8439C16.9805 26.0252 16.6899 26.1223 16.3916 26.1199H15.6084C15.3101 26.1223 15.0195 26.0252 14.7827 25.8439C14.5458 25.6626 14.3761 25.4074 14.3005 25.1189L12.9607 19.8386C12.9116 19.6465 12.9073 19.4457 12.9481 19.2518C12.9889 19.0578 13.0738 18.8758 13.1961 18.7198C13.3228 18.5567 13.4854 18.4249 13.6711 18.3347C13.8569 18.2445 14.061 18.1982 14.2675 18.1995H17.7325C17.939 18.1982 18.1431 18.2445 18.3289 18.3347C18.5146 18.4249 18.6772 18.5567 18.8039 18.7198C18.9262 18.8758 19.0111 19.0578 19.0519 19.2518C19.0927 19.4457 19.0884 19.6465 19.0393 19.8386ZM22.6 15.9993C22.5993 15.0575 22.3969 14.1267 22.0067 13.2695C21.6164 12.4123 21.0472 11.6485 20.3373 11.0296C19.6274 10.4106 18.7933 9.95073 17.8909 9.68088C16.9886 9.41103 16.0389 9.33744 15.1058 9.46505C14.1727 9.59266 13.2776 9.91851 12.4809 10.4207C11.6841 10.9229 11.004 11.5899 10.4864 12.3767C9.96871 13.1635 9.62543 14.0521 9.4796 14.9826C9.33377 15.9131 9.38877 16.864 9.6409 17.7715C9.67212 17.884 9.65738 18.0043 9.59993 18.1059C9.54247 18.2075 9.44702 18.2821 9.33455 18.3133C9.22209 18.3445 9.10183 18.3298 9.00023 18.2723C8.89863 18.2149 8.82402 18.1194 8.7928 18.007C8.48283 16.8955 8.43415 15.7274 8.65058 14.5941C8.867 13.4607 9.34267 12.3928 10.0404 11.4738C10.7381 10.5548 11.6389 9.8097 12.6724 9.29673C13.7059 8.78376 14.844 8.51684 15.9978 8.51684C17.1516 8.51684 18.2897 8.78376 19.3232 9.29673C20.3567 9.8097 21.2575 10.5548 21.9552 11.4738C22.6529 12.3928 23.1286 13.4607 23.345 14.5941C23.5615 15.7274 23.5128 16.8955 23.2028 18.007C23.1771 18.0996 23.1218 18.1812 23.0453 18.2394C22.9688 18.2976 22.8754 18.3292 22.7793 18.3293C22.7396 18.3295 22.7 18.3243 22.6616 18.3139C22.6058 18.2985 22.5536 18.2722 22.5079 18.2366C22.4623 18.201 22.4241 18.1568 22.3956 18.1064C22.3671 18.056 22.3488 18.0005 22.3418 17.943C22.3348 17.8856 22.3392 17.8273 22.3547 17.7715C22.5162 17.1946 22.5988 16.5984 22.6 15.9993ZM27 15.9993C27.001 17.8078 26.5558 19.5886 25.7038 21.1838C24.8519 22.779 23.6195 24.1393 22.116 25.1442C22.0191 25.2069 21.9015 25.229 21.7885 25.2058C21.6754 25.1826 21.576 25.1159 21.5117 25.0201C21.4474 24.9243 21.4232 24.8071 21.4445 24.6936C21.4658 24.5802 21.5307 24.4797 21.6254 24.4137C23.4299 23.207 24.7986 21.4519 25.5293 19.4077C26.2601 17.3635 26.3142 15.1385 25.6837 13.0612C25.0532 10.9839 23.7715 9.16437 22.0277 7.87132C20.284 6.57827 18.1708 5.88021 16 5.88021C13.8292 5.88021 11.716 6.57827 9.97226 7.87132C8.22855 9.16437 6.94681 10.9839 6.31629 13.0612C5.68578 15.1385 5.73989 17.3635 6.47066 19.4077C7.20142 21.4519 8.5701 23.207 10.3746 24.4137C10.4693 24.4797 10.5342 24.5802 10.5555 24.6936C10.5768 24.8071 10.5526 24.9243 10.4883 25.0201C10.424 25.1159 10.3246 25.1826 10.2115 25.2058C10.0985 25.229 9.98088 25.2069 9.884 25.1442C8.30467 24.0876 7.02593 22.64 6.17237 20.9423C5.31881 19.2447 4.91953 17.3548 5.01345 15.4569C5.10736 13.559 5.69126 11.7178 6.70825 10.1127C7.72525 8.50762 9.14066 7.19332 10.8166 6.29791C12.4925 5.40249 14.3718 4.95648 16.2713 5.00335C18.1708 5.05021 20.0258 5.58834 21.6555 6.56531C23.2852 7.54227 24.6341 8.92477 25.5707 10.5781C26.5074 12.2314 26.9998 14.0991 27 15.9993Z" stroke="currentColor" stroke-width="0.4" mask="url(#path-1-outside-1_5838_450)"/>
</svg>
